<svg id="visual" viewBox="0 0 1000 450" width="1000" height="450" xmlns="http://www.w3.org/2000/svg" xmlns:xlink="http://www.w3.org/1999/xlink" version="1.1"><rect x="0" y="0" width="1000" height="450" fill="#931C1C"></rect><path d="M0 295L143 325L286 300L429 292L571 282L714 296L857 306L1000 267L1000 451L857 451L714 451L571 451L429 451L286 451L143 451L0 451Z" fill="#f5730a"></path><path d="M0 302L143 328L286 330L429 298L571 316L714 308L857 320L1000 316L1000 451L857 451L714 451L571 451L429 451L286 451L143 451L0 451Z" fill="#da5b09"></path><path d="M0 336L143 336L286 334L429 369L571 382L714 332L857 360L1000 337L1000 451L857 451L714 451L571 451L429 451L286 451L143 451L0 451Z" fill="#be4407"></path><path d="M0 368L143 401L286 372L429 406L571 396L714 365L857 382L1000 362L1000 451L857 451L714 451L571 451L429 451L286 451L143 451L0 451Z" fill="#a32d04"></path><path d="M0 397L143 393L286 419L429 405L571 408L714 410L857 404L1000 422L1000 451L857 451L714 451L571 451L429 451L286 451L143 451L0 451Z" fill="#871400"></path></svg>